# xmcd
# 
# Track frame offsets:
#     150
#     15987
#     30145
# 
# Disc length: 772
# 
# Revision: 2
# Processed by: cddbd v1.5.2PL0 Copyright (c) Steve Scherf et al.
# Submitted via: fre:ac v1.0.31
# 
DISCID=0d030203
DTITLE=Stam1na, Rytmihäiriö, Mokoma - Sakara Tour 06 - Työnkulma, Kuopio 09.11.2006
DYEAR=2006
DGENRE=Metal
TTITLE0=Mokoma - Takatalvi
TTITLE1=Rytmihäiriö - Pakko Tappaa Ihminen
TTITLE2=Stam1na - Likainen Parketti
EXTD=
EXTT0=
EXTT1=
EXTT2=
PLAYORDER=
